<svg xmlns="http://www.w3.org/2000/svg" viewBox="0 0 1562 266">
  <path fill="#FFF" d="M135.123047,111.135742 L52.3256836,111.135742 L52.3256836,183.355469 L147.524414,183.355469 L147.524414,196 L37.3710938,196 L37.3710938,18.9765625 L146.916504,18.9765625 L146.916504,31.7426758 L52.3256836,31.7426758 L52.3256836,98.4912109 L135.123047,98.4912109 L135.123047,111.135742 Z M232.388672,174.115234 L233.361328,177.884277 L234.455566,174.115234 L290.140137,18.9765625 L306.553711,18.9765625 L240.65625,196 L226.30957,196 L160.412109,18.9765625 L176.704102,18.9765625 L232.388672,174.115234 Z M352.390137,18.9765625 L417.679688,175.209473 L483.212402,18.9765625 L503.151855,18.9765625 L503.151855,196 L488.197266,196 L488.197266,118.916992 L489.413086,39.8886719 L423.515625,196 L411.965332,196 L346.311035,40.496582 L347.526855,118.430664 L347.526855,196 L332.572266,196 L332.572266,18.9765625 L352.390137,18.9765625 Z M735.251953,122.321289 L683.822754,122.321289 L683.822754,196 L668.746582,196 L668.746582,18.9765625 L726.254883,18.9765625 C745.140719,18.9765625 759.892525,23.5561065 770.510742,32.715332 C781.128959,41.8745575 786.437988,54.6810701 786.437988,71.1352539 C786.437988,82.4829669 783.114779,92.4931207 776.468262,101.166016 C769.821744,109.838911 760.905818,115.836897 749.720215,119.160156 L793.976074,194.419434 L793.976074,196 L778.048828,196 L735.251953,122.321289 Z M683.822754,109.555176 L729.65918,109.555176 C742.222719,109.555176 752.313927,105.988805 759.933105,98.855957 C767.552284,91.7231089 771.361816,82.4829669 771.361816,71.1352539 C771.361816,58.6527696 767.390176,48.9668313 759.446777,42.0771484 C751.503378,35.1874656 740.35847,31.7426758 726.011719,31.7426758 L683.822754,31.7426758 L683.822754,109.555176 Z M874.706543,198.431641 C863.52094,198.431641 853.409469,195.675809 844.371826,190.164062 C835.334183,184.652316 828.30276,176.972461 823.277344,167.124268 C818.251928,157.276074 815.739258,146.232483 815.739258,133.993164 L815.739258,128.765137 C815.739258,116.120542 818.191138,104.732473 823.094971,94.6005859 C827.998804,84.4686993 834.827593,76.5051559 843.581543,70.7097168 C852.335493,64.9142777 861.818797,62.0166016 872.031738,62.0166016 C887.999592,62.0166016 900.66426,67.4674748 910.026123,78.3693848 C919.387986,89.2712947 924.068848,104.164945 924.068848,123.050781 L924.068848,131.196777 L830.20752,131.196777 L830.20752,133.993164 C830.20752,148.907301 834.483112,161.328808 843.034424,171.258057 C851.585736,181.187306 862.345638,186.151855 875.314453,186.151855 C883.095742,186.151855 889.965058,184.733413 895.922607,181.896484 C901.880157,179.059556 907.290503,174.520539 912.153809,168.279297 L921.272461,175.209473 C910.573189,190.690995 895.051371,198.431641 874.706543,198.431641 Z M872.031738,74.4179688 C861.089301,74.4179688 851.869422,78.4301357 844.371826,86.4545898 C836.87423,94.479044 832.31495,105.25921 830.693848,118.79541 L909.600586,118.79541 L909.600586,117.214844 C909.19531,104.570249 905.588413,94.2764069 898.779785,86.3330078 C891.971157,78.3896087 883.055231,74.4179688 872.031738,74.4179688 Z M946.561523,129.008301 C946.561523,108.420307 951.120804,92.1082145 960.239502,80.0715332 C969.3582,68.0348519 981.73918,62.0166016 997.382812,62.0166016 C1015.29599,62.0166016 1028.91304,69.1493427 1038.23438,83.4150391 L1038.96387,64.4482422 L1052.58105,64.4482422 L1052.58105,193.325195 C1052.58105,210.26571 1047.8394,223.680126 1038.35596,233.568848 C1028.87251,243.457569 1016.02547,248.401855 999.814453,248.401855 C990.655228,248.401855 981.921672,246.355245 973.613525,242.261963 C965.305378,238.168681 958.760278,232.717807 953.978027,225.90918 L962.124023,217.155273 C972.41802,229.799868 984.657156,236.12207 998.841797,236.12207 C1011.00006,236.12207 1020.48336,232.535436 1027.29199,225.362061 C1034.10062,218.188685 1037.62646,208.239321 1037.86963,195.513672 L1037.86963,178.978516 C1028.54829,191.94733 1014.97177,198.431641 997.139648,198.431641 C981.901291,198.431641 969.662156,192.3526 960.421875,180.194336 C951.181594,168.036072 946.561523,151.622662 946.561523,130.953613 L946.561523,129.008301 Z M961.272949,131.561523 C961.272949,148.339928 964.636685,161.571973 971.364258,171.258057 C978.091831,180.94414 987.575134,185.787109 999.814453,185.787109 C1017.72763,185.787109 1030.41256,177.762776 1037.86963,161.713867 L1037.86963,100.558105 C1034.46532,92.1283758 1029.56156,85.7048561 1023.1582,81.2873535 C1016.75485,76.869851 1009.05473,74.6611328 1000.05762,74.6611328 C987.818298,74.6611328 978.294468,79.463575 971.48584,89.0686035 C964.677212,98.673632 961.272949,112.837797 961.272949,131.561523 Z M1106.80664,196 L1092.2168,196 L1092.2168,64.4482422 L1106.80664,64.4482422 L1106.80664,196 Z M1089.66357,26.3930664 C1089.66357,23.6371933 1090.55517,21.3068943 1092.33838,19.4020996 C1094.12159,17.4973049 1096.55321,16.5449219 1099.6333,16.5449219 C1102.71339,16.5449219 1105.16527,17.4973049 1106.98901,19.4020996 C1108.81275,21.3068943 1109.72461,23.6371933 1109.72461,26.3930664 C1109.72461,29.1489396 1108.81275,31.4589751 1106.98901,33.3232422 C1105.16527,35.1875093 1102.71339,36.1196289 1099.6333,36.1196289 C1096.55321,36.1196289 1094.12159,35.1875093 1092.33838,33.3232422 C1090.55517,31.4589751 1089.66357,29.1489396 1089.66357,26.3930664 Z M1225.10596,162.564941 C1225.10596,155.351038 1222.20828,149.555686 1216.41284,145.178711 C1210.6174,140.801736 1201.88385,137.37721 1190.21191,134.905029 C1178.53998,132.432849 1169.48221,129.595963 1163.03833,126.394287 C1156.59445,123.192611 1151.81227,119.281761 1148.69165,114.661621 C1145.57103,110.041481 1144.01074,104.448763 1144.01074,97.8833008 C1144.01074,87.5082489 1148.34712,78.9368014 1157.02002,72.1687012 C1165.69291,65.4006009 1176.7973,62.0166016 1190.3335,62.0166016 C1205.00447,62.0166016 1216.77754,65.6437626 1225.65308,72.8981934 C1234.52861,80.1526242 1238.96631,89.6156643 1238.96631,101.287598 L1224.37646,101.287598 C1224.37646,93.5873638 1221.15457,87.1841076 1214.71069,82.0776367 C1208.26681,76.9711659 1200.14116,74.4179688 1190.3335,74.4179688 C1180.769,74.4179688 1173.08914,76.545633 1167.2937,80.8010254 C1161.49826,85.0564178 1158.60059,90.5883449 1158.60059,97.3969727 C1158.60059,103.962435 1161.01194,109.048566 1165.83472,112.655518 C1170.65749,116.262469 1179.45184,119.565415 1192.21802,122.564453 C1204.98419,125.563492 1214.54855,128.76512 1220.91138,132.169434 C1227.2742,135.573747 1231.99559,139.666968 1235.07568,144.449219 C1238.15578,149.231469 1239.6958,155.026821 1239.6958,161.835449 C1239.6958,172.939997 1235.21757,181.815396 1226.26099,188.461914 C1217.3044,195.108432 1205.61238,198.431641 1191.18457,198.431641 C1175.86516,198.431641 1163.44365,194.723426 1153.91968,187.306885 C1144.3957,179.890344 1139.63379,170.508358 1139.63379,159.160645 L1154.22363,159.160645 C1154.79102,167.671429 1158.37765,174.297584 1164.98364,179.039307 C1171.58963,183.78103 1180.32319,186.151855 1191.18457,186.151855 C1201.31646,186.151855 1209.5029,183.922874 1215.74414,179.464844 C1221.98538,175.006814 1225.10596,169.373569 1225.10596,162.564941 Z M1295.01562,30.7700195 L1295.01562,64.4482422 L1322.25,64.4482422 L1322.25,76.3632812 L1295.01562,76.3632812 L1295.01562,164.023926 C1295.01562,171.318884 1296.33275,176.749494 1298.96704,180.315918 C1301.60133,183.882342 1305.9985,185.665527 1312.15869,185.665527 C1314.59034,185.665527 1318.52146,185.260258 1323.95215,184.449707 L1324.56006,196.364746 C1320.75047,197.742683 1315.56302,198.431641 1308.99756,198.431641 C1299.02778,198.431641 1291.77346,195.533965 1287.23438,189.738525 C1282.69529,183.943086 1280.42578,175.412166 1280.42578,164.145508 L1280.42578,76.3632812 L1256.23096,76.3632812 L1256.23096,64.4482422 L1280.42578,64.4482422 L1280.42578,30.7700195 L1295.01562,30.7700195 Z M1413.19336,76.8496094 C1410.11327,76.2822237 1406.83058,75.9985352 1403.34521,75.9985352 C1394.26704,75.9985352 1386.58719,78.5314688 1380.30542,83.5974121 C1374.02365,88.6633554 1369.54542,96.0189947 1366.87061,105.664551 L1366.87061,196 L1352.40234,196 L1352.40234,64.4482422 L1366.62744,64.4482422 L1366.87061,85.3603516 C1374.57084,69.7977738 1386.93156,62.0166016 1403.95312,62.0166016 C1408.00588,62.0166016 1411.20751,62.5434518 1413.55811,63.597168 L1413.19336,76.8496094 Z M1477.875,175.087891 L1516.29492,64.4482422 L1531.979,64.4482422 L1475.80811,218.371094 L1472.89014,225.179688 C1465.67623,241.147541 1454.53133,249.131348 1439.45508,249.131348 C1435.96971,249.131348 1432.24123,248.563971 1428.26953,247.429199 L1428.14795,235.392578 L1435.68604,236.12207 C1442.81888,236.12207 1448.59397,234.359148 1453.01147,230.833252 C1457.42898,227.307355 1461.17772,221.248578 1464.25781,212.656738 L1470.70166,194.905762 L1421.09619,64.4482422 L1437.02344,64.4482422 L1477.875,175.087891 Z"/>
</svg>
