<svg xmlns="http://www.w3.org/2000/svg" width="102" height="18" viewBox="0 0 102 18">
  <g fill="none">
    <polygon fill="#FFF" points="0 14.292 0 13.135 7.577 1.529 0 1.529 0 .372 9.041 .372 9.041 1.529 1.446 13.135 9.041 13.135 9.041 14.292"/>
    <path fill="#FFF" d="M15.5588018 14.5808295C14.5949309 14.5808295 13.7787097 14.3236866 13.1101382 13.8094009 12.4680796 13.3325421 11.9782198 12.6795878 11.7 11.9297696 11.4227216 11.1469922 11.2856913 10.3214413 11.2952074 9.49105991 11.2952074 8.01290323 11.6546544 6.78221198 12.3735484 5.79898618 13.0924424 4.81576037 14.1464516 4.32414747 15.535576 4.32414747 18.4277419 4.32414747 19.8738249 6.09152074 19.8738249 9.62626728L19.8738249 9.72248848 12.5319816 9.72248848C12.5574194 10.8539171 12.8176037 11.7696774 13.3125346 12.4697696 13.8074654 13.1698618 14.6010138 13.5201843 15.6931797 13.5207373 16.3595003 13.5334723 17.0109318 13.3229469 17.5437788 12.9226728 18.0492684 12.5581521 18.3945539 12.0125892 18.5076498 11.3997235L19.7029493 11.3997235C19.497788 12.4266359 19.0407373 13.2141014 18.3317972 13.7621198 17.6228571 14.3101382 16.6985253 14.5830415 15.5588018 14.5808295zM12.5726267 8.73953917L18.6453456 8.73953917C18.6453456 7.69824885 18.3851613 6.87898618 17.8647926 6.28175115 17.344424 5.68451613 16.5757604 5.38562212 15.5588018 5.38506912 14.6076498 5.38506912 13.8718894 5.70967742 13.3515207 6.35889401 12.8311521 7.0081106 12.5706912 7.80165899 12.5701382 8.73953917L12.5726267 8.73953917zM22.8268203 17.9933641L22.8268203 4.61364055 23.9640553 4.61364055 23.9640553 6.07852535 24.002212 6.07852535C24.6458986 4.90949309 25.6551152 4.32470046 27.0298618 4.32414747 28.315023 4.32414747 29.3206452 4.82543779 30.0467281 5.82801843 30.7728111 6.83059908 31.136129 8.01235023 31.136682 9.37327189 31.136682 10.7225806 30.7703226 11.9275576 30.0376037 12.9882028 29.3048848 14.0488479 28.3023041 14.5791705 27.0298618 14.5791705 26.3485714 14.5791705 25.7734562 14.4345622 25.3045161 14.1453456 24.835576 13.856129 24.4017512 13.4029493 24.0030415 12.7858065L23.9648848 12.7858065 23.9648848 17.9917051 22.8268203 17.9933641zM27.0298618 13.5207373C27.9810138 13.5207373 28.7040553 13.0965899 29.1989862 12.2482949 29.6982887 11.3879045 29.9559329 10.4086273 29.9447005 9.41391705 29.9563786 8.43449712 29.6980863 7.4707798 29.1981567 6.62847926 28.7004608 5.79898618 27.9774194 5.38423963 27.0290323 5.38423963 26.0264516 5.38423963 25.2522581 5.79235023 24.7064516 6.60857143 24.1606452 7.42479263 23.8882949 8.37400922 23.8894009 9.4562212 23.8894009 10.5356682 24.1625806 11.4835023 24.7089401 12.2997235 25.2552995 13.1159447 26.0289401 13.5229493 27.0298618 13.5207373zM33.9511521 17.9933641L33.9511521 4.61364055 35.0875576 4.61364055 35.0875576 6.07852535 35.1257143 6.07852535C35.7694009 4.90949309 36.7797235 4.32470046 38.156682 4.32414747 39.4418433 4.32414747 40.4474654 4.82543779 41.1735484 5.82801843 41.8996313 6.83059908 42.2621198 8.01235023 42.2610138 9.37327189 42.2610138 10.7225806 41.8946544 11.9275576 41.1619355 12.9882028 40.4292166 14.0488479 39.4274654 14.5797235 38.156682 14.5808295 37.4753917 14.5808295 36.9002765 14.4362212 36.4313364 14.1470046 35.9623963 13.857788 35.5285714 13.4046083 35.1298618 12.7874654L35.0875576 12.7874654 35.0875576 17.9933641 33.9511521 17.9933641zM38.156682 13.5207373C39.1078341 13.5207373 39.8308756 13.0965899 40.3258065 12.2482949 40.8239498 11.3875755 41.0804422 10.4083189 41.0682028 9.41391705 41.0812876 8.43460995 40.824432 7.47061248 40.3258065 6.62764977 39.8281106 5.79815668 39.1050691 5.38341014 38.156682 5.38341014 37.1541014 5.38341014 36.3799078 5.79152074 35.8341014 6.60774194 35.2882949 7.42396313 35.0140092 8.37345622 35.0112442 9.4562212 35.0112442 10.5356682 35.284424 11.4835023 35.8307834 12.2997235 36.3771429 13.1159447 37.1524424 13.5229493 38.156682 13.5207373zM48.9309677 14.5808295C47.9670968 14.5808295 47.1508756 14.3236866 46.4823041 13.8094009 45.8402455 13.3325421 45.3503857 12.6795878 45.0721659 11.9297696 44.7948875 11.1469922 44.6578572 10.3214413 44.6673733 9.49105991 44.6673733 8.01290323 45.0268203 6.78221198 45.7457143 5.79898618 46.4646083 4.81576037 47.5186175 4.32414747 48.9077419 4.32414747 51.7999078 4.32414747 53.2459908 6.09152074 53.2459908 9.62626728L53.2459908 9.72248848 45.9041475 9.72248848C45.9295853 10.8539171 46.1897696 11.7696774 46.6847005 12.4697696 47.1796313 13.1698618 47.9734562 13.5201843 49.0661751 13.5207373 49.7324957 13.5334723 50.3839272 13.3229469 50.9167742 12.9226728 51.4223274 12.558212 51.7676307 12.0126211 51.8806452 11.3997235L53.0759447 11.3997235C52.8702304 12.4282949 52.4140092 13.2154839 51.7072811 13.7612903 51.000553 14.3070968 50.0751152 14.5802765 48.9309677 14.5808295zM45.9447926 8.73953917L52.0175115 8.73953917C52.0175115 7.69824885 51.7573272 6.87898618 51.2369585 6.28175115 50.7165899 5.68451613 49.9479263 5.38562212 48.9309677 5.38506912 47.9798157 5.38506912 47.2440553 5.70967742 46.7236866 6.35889401 46.203318 7.0081106 45.9431336 7.80165899 45.9431336 8.73953917L45.9447926 8.73953917z"/>
    <polygon fill="#FFF" points="56.373 14.292 56.373 .372 57.491 .372 57.491 14.292"/>
    <path fill="#FFF" d="M60.903871 2.01069124L60.903871.351705069 62.4077419.351705069 62.4077419 2.01069124 60.903871 2.01069124zM61.1933641 14.2921659L61.1933641 4.61364055 62.3115207 4.61364055 62.3115207 14.2921659 61.1933641 14.2921659zM66.0517051 14.2921659L66.0517051 4.61364055 67.1889401 4.61364055 67.1889401 6.04036866 67.2270968 6.07852535C67.8182488 4.90894009 68.8078341 4.32414747 70.1958525 4.32414747 71.2880184 4.32414747 72.1175115 4.69050691 72.6843318 5.42322581 73.2511521 6.1559447 73.5340092 7.09410138 73.5329032 8.23769585L73.5329065 14.2929954 72.3948387 14.2929954 72.3948387 8.04608295C72.3948387 7.24921659 72.1736406 6.60663594 71.7312442 6.11834101 71.2888479 5.63004608 70.680553 5.38589862 69.9063594 5.38589862 69.0453456 5.38589862 68.3770507 5.71354839 67.9014747 6.36884793 67.4258986 7.02414747 67.1883871 7.80801843 67.1889401 8.72046083L67.1889401 14.2921659 66.0517051 14.2921659z"/>
    <path fill="#000" d="M83.0364055 14.5808295C81.6992627 14.5808295 80.5617512 14.2435023 79.623871 13.5688479 78.7035656 12.9173414 77.9960334 12.0086878 77.5899539 10.9567742 77.1724424 9.89004608 76.9636866 8.68175115 76.9636866 7.3318894 76.9636866 5.98202765 77.1724424 4.77373272 77.5899539 3.70700461 77.9961201 2.65514009 78.7036344 1.7465094 79.623871 1.09493088 80.5623041.420276498 81.6998157.0829493088 83.0364055.0829493088 85.0271889.0829493088 86.5407373.767281106 87.5770507 2.1359447 88.6133641 3.50460829 89.1306912 5.23658986 89.1290323 7.3318894 89.1290323 9.42718894 88.6117051 11.1591705 87.5770507 12.5278341 86.5423963 13.8964977 85.0288479 14.5808295 83.0364055 14.5808295zM83.0364055 13.4236866C84.1031336 13.4236866 85.0092166 13.1195392 85.7546544 12.5112442 86.4823705 11.9260271 87.0303386 11.1474868 87.3356682 10.264977 87.653414 9.32103013 87.8098888 8.33030403 87.7985253 7.33437788 87.8098571 6.33845403 87.6533832 5.34773319 87.3356682 4.4037788 87.0303956 3.52100868 86.4824312 2.74218635 85.7546544 2.15668203 85.0092166 1.5483871 84.1031336 1.24423963 83.0364055 1.24423963 82.2268203 1.24423963 81.5101382 1.41788018 80.8863594 1.76516129 80.2788252 2.09778373 79.7652226 2.57857282 79.3932719 3.16285714 79.0144692 3.75952891 78.730975 4.41159364 78.5529954 5.09557604 78.3633669 5.82689214 78.2694032 6.57971695 78.2734562 7.33520737 78.2693752 8.09069946 78.3633393 8.84352788 78.5529954 9.57483871 78.7298556 10.2604906 79.0128104 10.9142815 79.3916129 11.5125346 79.7634521 12.0969114 80.2770812 12.5777254 80.8847005 12.9102304 81.5095853 13.2530876 82.2268203 13.4245161 83.0364055 13.4245161L83.0364055 13.4236866zM97.1104147 14.5808295C94.1541014 14.5808295 92.5152995 13.2763134 92.1940092 10.6672811L93.5054378 10.6672811C93.7625806 12.5441475 94.9451613 13.4823041 97.0531797 13.4817512 99.1611982 13.4811982 100.215207 12.5687558 100.215207 10.744424 100.225684 10.2750709 100.076208 9.81611186 99.7913364 9.44294931 99.4964494 9.06697856 99.1166751 8.76622913 98.6831336 8.56534562 98.1950708 8.33421474 97.6927605 8.13445425 97.1792627 7.96728111 96.6329032 7.7875576 96.0865438 7.59152074 95.5401843 7.37917051 95.0184898 7.17935505 94.5152804 6.93427288 94.0363134 6.64672811 93.5765965 6.36730499 93.1950741 5.97608049 92.9272811 5.50949309 92.6447005 5.02728111 92.5034101 4.45852535 92.5034101 3.80322581 92.5034101 2.60764977 92.9082028 1.68857143 93.717788 1.04599078 94.5273733.403410138 95.5504147.0821198157 96.7869124.0821198157 99.5629493.0821198157 101.041106 1.1881106 101.221382 3.40009217L99.9879263 3.40009217C99.8463594 1.90700461 98.7987097 1.16046083 96.844977 1.16046083 95.9706912 1.16046083 95.2517972 1.36617512 94.6882949 1.77760369 94.1247926 2.18903226 93.8419355 2.81889401 93.8397235 3.66718894 93.828128 4.15740574 93.9769651 4.63799506 94.2635945 5.03585253 94.5541164 5.42816788 94.9340314 5.74552204 95.3717972 5.96156682 95.8577487 6.20540125 96.3602846 6.41467571 96.8756682 6.5878341 97.4220276 6.77419355 97.9683871 6.97354839 98.5147465 7.18589862 99.0363334 7.38596198 99.5395217 7.63103383 100.018618 7.91834101 100.47785 8.19810038 100.859028 8.58926374 101.12682 9.05557604 101.417633 9.56947415 101.564091 10.1524399 101.550691 10.742765 101.550691 12.0799078 101.152258 13.0534562 100.355392 13.6634101 99.5585253 14.2733641 98.4768664 14.5791705 97.1104147 14.5808295z"/>
  </g>
</svg>
