<svg xmlns="http://www.w3.org/2000/svg" viewBox="0 0 2391 306">
  <g fill="none" fill-rule="evenodd">
    <g transform="translate(34 42)">
      <polygon fill="#FFF" points="0 172.3 0 158.35 91.34 18.43 0 18.43 0 4.49 109 4.49 109 18.43 17.43 158.35 109 158.35 109 172.3"/>
      <path fill="#FFF" fill-rule="nonzero" d="M187.57 175.78C175.95 175.78 166.11 172.68 158.05 166.48 150.309626 160.731202 144.404095 152.859475 141.05 143.82 137.707254 134.383184 136.055279 124.430708 136.17 114.42 136.17 96.6 140.503333 81.7633333 149.17 69.91 157.836667 58.0566667 170.543333 52.13 187.29 52.13 222.156667 52.13 239.59 73.4366667 239.59 116.05L239.59 117.21 151.08 117.21C151.386667 130.85 154.523333 141.89 160.49 150.33 166.456667 158.77 176.023333 162.993333 189.19 163 197.222865 163.153527 205.076233 160.615527 211.5 155.79 217.593958 151.395501 221.756566 144.818437 223.12 137.43L237.53 137.43C235.056667 149.81 229.546667 159.303333 221 165.91 212.453333 172.516667 201.31 175.806667 187.57 175.78zM151.57 105.36L224.78 105.36C224.78 92.8066667 221.643333 82.93 215.37 75.73 209.096667 68.53 199.83 64.9266667 187.57 64.92 176.103333 64.92 167.233333 68.8333333 160.96 76.66 154.686667 84.4866667 151.546667 94.0533333 151.54 105.36L151.57 105.36zM275.19 216.92L275.19 55.62 288.9 55.62 288.9 73.28 289.36 73.28C297.12 59.1866667 309.286667 52.1366667 325.86 52.13 341.353333 52.13 353.476667 58.1733333 362.23 70.26 370.983333 82.3466667 375.363333 96.5933333 375.37 113 375.37 129.266667 370.953333 143.793333 362.12 156.58 353.286667 169.366667 341.2 175.76 325.86 175.76 317.646667 175.76 310.713333 174.016667 305.06 170.53 299.406667 167.043333 294.176667 161.58 289.37 154.14L288.91 154.14 288.91 216.9 275.19 216.92zM325.86 163C337.326667 163 346.043333 157.886667 352.01 147.66 358.029369 137.287515 361.135413 125.481785 361 113.49 361.140786 101.682549 358.026929 90.0644009 352 79.91 346 69.91 337.283333 64.91 325.85 64.91 313.763333 64.91 304.43 69.83 297.85 79.67 291.27 89.51 287.986667 100.953333 288 114 288 127.013333 291.293333 138.44 297.88 148.28 304.466667 158.12 313.793333 163.026667 325.86 163zM409.3 216.92L409.3 55.62 423 55.62 423 73.28 423.46 73.28C431.22 59.1866667 443.4 52.1366667 460 52.13 475.493333 52.13 487.616667 58.1733333 496.37 70.26 505.123333 82.3466667 509.493333 96.5933333 509.48 113 509.48 129.266667 505.063333 143.793333 496.23 156.58 487.396667 169.366667 475.32 175.766667 460 175.78 451.786667 175.78 444.853333 174.036667 439.2 170.55 433.546667 167.063333 428.316667 161.6 423.51 154.16L423 154.16 423 216.92 409.3 216.92zM460 163C471.466667 163 480.183333 157.886667 486.15 147.66 492.155394 137.283549 495.247553 125.478066 495.1 113.49 495.257745 101.683909 492.161209 90.0623838 486.15 79.9 480.15 69.9 471.433333 64.9 460 64.9 447.913333 64.9 438.58 69.82 432 79.66 425.42 89.5 422.113333 100.946667 422.08 114 422.08 127.013333 425.373333 138.44 431.96 148.28 438.546667 158.12 447.893333 163.026667 460 163zM589.89 175.78C578.27 175.78 568.43 172.68 560.37 166.48 552.629626 160.731202 546.724095 152.859475 543.37 143.82 540.027254 134.383184 538.375279 124.430708 538.49 114.42 538.49 96.6 542.823333 81.7633333 551.49 69.91 560.156667 58.0566667 572.863333 52.13 589.61 52.13 624.476667 52.13 641.91 73.4366667 641.91 116.05L641.91 117.21 553.4 117.21C553.706667 130.85 556.843333 141.89 562.81 150.33 568.776667 158.77 578.346667 162.993333 591.52 163 599.552865 163.153527 607.406233 160.615527 613.83 155.79 619.924725 151.396223 624.087547 144.818821 625.45 137.43L639.86 137.43C637.38 149.83 631.88 159.32 623.36 165.9 614.84 172.48 603.683333 175.773333 589.89 175.78zM553.89 105.36L627.1 105.36C627.1 92.8066667 623.963333 82.93 617.69 75.73 611.416667 68.53 602.15 64.9266667 589.89 64.92 578.423333 64.92 569.553333 68.8333333 563.28 76.66 557.006667 84.4866667 553.87 94.0533333 553.87 105.36L553.89 105.36z"/>
      <polygon fill="#FFF" points="679.61 172.3 679.61 4.49 693.09 4.49 693.09 172.3"/>
      <path fill="#FFF" fill-rule="nonzero" d="M734.23,24.24 L734.23,4.24 L752.36,4.24 L752.36,24.24 L734.23,24.24 Z M737.72,172.3 L737.72,55.62 L751.2,55.62 L751.2,172.3 L737.72,172.3 Z"/>
      <path fill="#FFF" d="M796.29,172.3 L796.29,55.62 L810,55.62 L810,72.82 L810.46,73.28 C817.586667,59.18 829.516667,52.13 846.25,52.13 C859.416667,52.13 869.416667,56.5466667 876.25,65.38 C883.083333,74.2133333 886.493333,85.5233333 886.48,99.31 L886.480039,172.31 L872.76,172.31 L872.76,97 C872.76,87.3933333 870.093333,79.6466667 864.76,73.76 C859.426667,67.8733333 852.093333,64.93 842.76,64.93 C832.38,64.93 824.323333,68.88 818.59,76.78 C812.856667,84.68 809.993333,94.13 810,105.13 L810,172.3 L796.29,172.3 Z"/>
      <path fill="#67EAEC" fill-rule="nonzero" d="M1001.05,175.78 C984.93,175.78 971.216667,171.713333 959.91,163.58 C948.815207,155.725727 940.285514,144.771403 935.39,132.09 C930.356667,119.23 927.84,104.663333 927.84,88.39 C927.84,72.1166667 930.356667,57.55 935.39,44.69 C940.286559,32.0091889 948.816037,21.0551411 959.91,13.2 C971.223333,5.06666667 984.936667,1 1001.05,1 C1025.05,1 1043.29667,9.25 1055.79,25.75 C1068.28333,42.25 1074.52,63.13 1074.5,88.39 C1074.5,113.65 1068.26333,134.53 1055.79,151.03 C1043.31667,167.53 1025.07,175.78 1001.05,175.78 Z M1001.05,161.83 C1013.91,161.83 1024.83333,158.163333 1033.82,150.83 C1042.59302,143.774882 1049.19908,134.389147 1052.88,123.75 C1056.7106,112.370197 1058.59699,100.426443 1058.46,88.42 C1058.59661,76.4135847 1056.71023,64.4698945 1052.88,53.09 C1049.19977,42.4477158 1042.59375,33.0585799 1033.82,26 C1024.83333,18.6666667 1013.91,15 1001.05,15 C991.29,15 982.65,17.0933333 975.13,21.28 C967.805837,25.2899483 961.614073,31.0861278 957.13,38.13 C952.563323,45.3232097 949.145643,53.1842122 947,61.43 C944.713923,70.2464219 943.581139,79.3221432 943.63,88.43 C943.580801,97.5378769 944.71359,106.613642 947,115.43 C949.132148,123.695915 952.543326,131.577727 957.11,138.79 C961.592728,145.834988 967.784813,151.631467 975.11,155.64 C982.643333,159.773333 991.29,161.84 1001.05,161.84 L1001.05,161.83 Z"/>
      <path fill="#67EAEC" d="M1170.72,175.78 C1135.08,175.78 1115.32333,160.053333 1111.45,128.6 L1127.26,128.6 C1130.36,151.226667 1144.61667,162.536667 1170.03,162.53 C1195.44333,162.523333 1208.15,151.523333 1208.15,129.53 C1208.2763,123.871688 1206.47428,118.338682 1203.04,113.84 C1199.48497,109.307464 1194.90658,105.681762 1189.68,103.26 C1183.79613,100.473589 1177.7405,98.0653652 1171.55,96.05 C1164.96333,93.8833333 1158.37667,91.52 1151.79,88.96 C1145.50068,86.5511137 1139.43421,83.596512 1133.66,80.13 C1128.11786,76.761399 1123.51839,72.0449703 1120.29,66.42 C1116.88333,60.6066667 1115.18,53.75 1115.18,45.85 C1115.18,31.4366667 1120.06,20.3566667 1129.82,12.61 C1139.58,4.86333333 1151.91333,0.99 1166.82,0.99 C1200.28667,0.99 1218.10667,14.3233333 1220.28,40.99 L1205.41,40.99 C1203.70333,22.99 1191.07333,13.99 1167.52,13.99 C1156.98,13.99 1148.31333,16.47 1141.52,21.43 C1134.72667,26.39 1131.31667,33.9833333 1131.29,44.21 C1131.15021,50.1198358 1132.94452,55.9136071 1136.4,60.71 C1139.9024,65.4395794 1144.48249,69.2654601 1149.76,71.87 C1155.61842,74.8095595 1161.67676,77.3324794 1167.89,79.42 C1174.47667,81.6666667 1181.06333,84.07 1187.65,86.63 C1193.93802,89.0418749 1200.00423,91.9963522 1205.78,95.46 C1211.31631,98.8326546 1215.91161,103.548346 1219.14,109.17 C1222.64591,115.365327 1224.41154,122.393303 1224.25,129.51 C1224.25,145.63 1219.44667,157.366667 1209.84,164.72 C1200.23333,172.073333 1187.19333,175.76 1170.72,175.78 Z"/>
    </g>
    <path fill="#FFF" d="M1499.89062,144.167969 L1451.14648,144.167969 L1451.14648,214 L1436.85742,214 L1436.85742,46.21875 L1491.36328,46.21875 C1509.26311,46.21875 1523.24474,50.5592014 1533.30859,59.2402344 C1543.37245,67.9212674 1548.4043,80.0591668 1548.4043,95.6542969 C1548.4043,106.409559 1545.25459,115.897094 1538.95508,124.117188 C1532.65557,132.337281 1524.20513,138.02212 1513.60352,141.171875 L1555.54883,212.501953 L1555.54883,214 L1540.45312,214 L1499.89062,144.167969 Z M1451.14648,132.068359 L1494.58984,132.068359 C1506.49746,132.068359 1516.06181,128.688185 1523.2832,121.927734 C1530.50459,115.167284 1534.11523,106.409559 1534.11523,95.6542969 C1534.11523,83.8235086 1530.35095,74.6432618 1522.82227,68.1132812 C1515.29358,61.5833007 1504.73054,58.3183594 1491.13281,58.3183594 L1451.14648,58.3183594 L1451.14648,132.068359 Z M1638.04446,216.304688 C1627.44285,216.304688 1617.85929,213.692734 1609.29349,208.46875 C1600.72769,203.244766 1594.06337,195.965867 1589.30032,186.631836 C1584.53728,177.297805 1582.15579,166.830787 1582.15579,155.230469 L1582.15579,150.275391 C1582.15579,138.290956 1584.47966,127.497444 1589.12747,117.894531 C1593.77528,108.291619 1600.24755,100.743843 1608.54446,95.2509766 C1616.84138,89.7581106 1625.82957,87.0117188 1635.50931,87.0117188 C1650.6435,87.0117188 1662.64696,92.1780082 1671.52005,102.510742 C1680.39314,112.843476 1684.82962,126.959546 1684.82962,144.859375 L1684.82962,152.580078 L1595.86868,152.580078 L1595.86868,155.230469 C1595.86868,169.365956 1599.92105,181.13895 1608.02591,190.549805 C1616.13077,199.960659 1626.32891,204.666016 1638.62064,204.666016 C1645.99567,204.666016 1652.50635,203.321628 1658.15286,200.632812 C1663.79938,197.943997 1668.92725,193.641957 1673.53665,187.726562 L1682.17923,194.294922 C1672.03855,208.968172 1657.32711,216.304688 1638.04446,216.304688 Z M1636.50931,98.765625 C1626.13816,98.765625 1617.39964,102.568321 1610.29349,110.173828 C1603.18733,117.779335 1598.86609,127.996681 1597.32962,140.826172 L1672.11673,140.826172 L1672.11673,139.328125 C1671.73261,127.34369 1668.31403,117.587277 1661.86087,110.058594 C1655.40771,102.52991 1646.95728,98.765625 1636.50931,98.765625 Z M1714.12799,150.505859 C1714.12799,130.992741 1718.44924,115.532284 1727.09186,104.124023 C1735.73448,92.7157633 1747.46906,87.0117188 1762.29596,87.0117188 C1779.27391,87.0117188 1792.18003,93.7720678 1801.01471,107.292969 L1801.70612,89.3164062 L1814.61237,89.3164062 L1814.61237,211.464844 C1814.61237,227.520914 1810.11827,240.234979 1801.12994,249.607422 C1792.14162,258.979865 1779.96531,263.666016 1764.60065,263.666016 C1755.91961,263.666016 1747.64203,261.726256 1739.76764,257.84668 C1731.89325,253.967103 1725.68986,248.800814 1721.15729,242.347656 L1728.87799,234.050781 C1738.63455,246.035216 1750.23469,252.027344 1763.67877,252.027344 C1775.20227,252.027344 1784.19046,248.627964 1790.64362,241.829102 C1797.09677,235.030239 1800.43854,225.600321 1800.66901,213.539062 L1800.66901,197.867188 C1791.83433,210.158916 1778.96662,216.304688 1762.06549,216.304688 C1747.62271,216.304688 1736.02257,210.543026 1727.26471,199.019531 C1718.50685,187.496036 1714.12799,171.939551 1714.12799,152.349609 L1714.12799,150.505859 Z M1728.07135,152.925781 C1728.07135,168.828205 1731.25947,181.36942 1737.6358,190.549805 C1744.01214,199.730189 1753.00033,204.320312 1764.60065,204.320312 C1781.5786,204.320312 1793.60126,196.71492 1800.66901,181.503906 L1800.66901,123.541016 C1797.44243,115.551392 1792.79469,109.463237 1786.72565,105.276367 C1780.65661,101.089497 1773.3585,98.9960938 1764.83112,98.9960938 C1753.2308,98.9960938 1744.20419,103.547806 1737.75104,112.651367 C1731.29788,121.754928 1728.07135,135.179599 1728.07135,152.925781 Z M1866.98691,214 L1853.15878,214 L1853.15878,89.3164062 L1866.98691,89.3164062 L1866.98691,214 Z M1850.73886,53.2480469 C1850.73886,50.6360546 1851.5839,48.4274179 1853.27402,46.6220703 C1854.96413,44.8167227 1857.26879,43.9140625 1860.18808,43.9140625 C1863.10737,43.9140625 1865.43124,44.8167227 1867.15976,46.6220703 C1868.88828,48.4274179 1869.75253,50.6360546 1869.75253,53.2480469 C1869.75253,55.8600391 1868.88828,58.0494703 1867.15976,59.8164062 C1865.43124,61.5833422 1863.10737,62.4667969 1860.18808,62.4667969 C1857.26879,62.4667969 1854.96413,61.5833422 1853.27402,59.8164062 C1851.5839,58.0494703 1850.73886,55.8600391 1850.73886,53.2480469 Z M1980.08997,182.310547 C1980.08997,175.473273 1977.34357,169.980489 1971.85071,165.832031 C1966.35784,161.683573 1958.08026,158.437837 1947.0177,156.094727 C1935.95514,153.751616 1927.37027,151.062841 1921.26282,148.02832 C1915.15536,144.9938 1910.62286,141.287131 1907.66516,136.908203 C1904.70746,132.529275 1903.22864,127.228547 1903.22864,121.005859 C1903.22864,111.172477 1907.33862,103.048535 1915.55872,96.6337891 C1923.77881,90.2190434 1934.30344,87.0117188 1947.13293,87.0117188 C1961.03795,87.0117188 1972.19637,90.4495099 1980.60852,97.3251953 C1989.02067,104.200881 1993.22668,113.169867 1993.22668,124.232422 L1979.39856,124.232422 C1979.39856,116.934208 1976.34488,110.865259 1970.23743,106.025391 C1964.12997,101.185523 1956.42855,98.765625 1947.13293,98.765625 C1938.06779,98.765625 1930.78889,100.782206 1925.29602,104.81543 C1919.80315,108.848653 1917.05676,114.091765 1917.05676,120.544922 C1917.05676,126.767609 1919.34222,131.588199 1923.91321,135.006836 C1928.48419,138.425473 1936.8194,141.555975 1948.91907,144.398438 C1961.01874,147.2409 1970.08375,150.275374 1976.11438,153.501953 C1982.14501,156.728532 1986.6199,160.60805 1989.53918,165.140625 C1992.45847,169.6732 1993.91809,175.165983 1993.91809,181.619141 C1993.91809,192.143933 1989.67367,200.555958 1981.18469,206.855469 C1972.69572,213.154979 1961.61412,216.304688 1947.93958,216.304688 C1933.41997,216.304688 1921.64698,212.790074 1912.62024,205.760742 C1903.5935,198.73141 1899.0802,189.839246 1899.0802,179.083984 L1912.90833,179.083984 C1913.44609,187.150431 1916.84547,193.430642 1923.10657,197.924805 C1929.36767,202.418968 1937.64525,204.666016 1947.93958,204.666016 C1957.54249,204.666016 1965.30152,202.553407 1971.21692,198.328125 C1977.13231,194.102843 1980.08997,188.763704 1980.08997,182.310547 Z M2054.32974,57.3964844 L2054.32974,89.3164062 L2080.14224,89.3164062 L2080.14224,100.609375 L2054.32974,100.609375 L2054.32974,183.693359 C2054.32974,190.607456 2055.5781,195.75454 2058.07486,199.134766 C2060.57162,202.514991 2064.73922,204.205078 2070.57779,204.205078 C2072.88249,204.205078 2076.60836,203.820967 2081.75552,203.052734 L2082.3317,214.345703 C2078.721,215.651699 2073.80438,216.304688 2067.5817,216.304688 C2058.13243,216.304688 2051.25685,213.558296 2046.95474,208.06543 C2042.65264,202.572564 2040.50162,194.487033 2040.50162,183.808594 L2040.50162,100.609375 L2017.56998,100.609375 L2017.56998,89.3164062 L2040.50162,89.3164062 L2040.50162,57.3964844 L2054.32974,57.3964844 Z M2173.31757,102.070312 C2170.39828,101.532549 2167.28698,101.263672 2163.98358,101.263672 C2155.37937,101.263672 2148.10047,103.664364 2142.14667,108.46582 C2136.19286,113.267277 2131.94844,120.238887 2129.41327,129.380859 L2129.41327,215 L2115.70038,215 L2115.70038,90.3164062 L2129.1828,90.3164062 L2129.41327,110.136719 C2136.71148,95.386645 2148.42686,88.0117188 2164.55975,88.0117188 C2168.40092,88.0117188 2171.43539,88.5110627 2173.66327,89.5097656 L2173.31757,102.070312 Z M2252.60226,194.179688 L2289.01633,89.3164062 L2303.88156,89.3164062 L2250.64328,235.203125 L2247.87766,241.65625 C2241.04038,256.79044 2230.47734,264.357422 2216.1882,264.357422 C2212.8848,264.357422 2209.35098,263.819667 2205.58664,262.744141 L2205.47141,251.335938 L2212.61594,252.027344 C2219.37639,252.027344 2224.84996,250.356462 2229.03683,247.014648 C2233.2237,243.672835 2236.77673,237.930379 2239.69601,229.787109 L2245.80344,212.962891 L2198.78781,89.3164062 L2213.88351,89.3164062 L2252.60226,194.179688 Z"/>
  </g>
</svg>
